<?xml version="1.0" encoding="utf-8"?>
<!-- Generator: Adobe Illustrator 23.0.1, SVG Export Plug-In . SVG Version: 6.00 Build 0)  -->
<!DOCTYPE svg PUBLIC "-//W3C//DTD SVG 1.1//EN" "http://www.w3.org/Graphics/SVG/1.1/DTD/svg11.dtd" [
	<!ENTITY ns_extend "http://ns.adobe.com/Extensibility/1.0/">
	<!ENTITY ns_ai "http://ns.adobe.com/AdobeIllustrator/10.0/">
	<!ENTITY ns_graphs "http://ns.adobe.com/Graphs/1.0/">
	<!ENTITY ns_vars "http://ns.adobe.com/Variables/1.0/">
	<!ENTITY ns_imrep "http://ns.adobe.com/ImageReplacement/1.0/">
	<!ENTITY ns_sfw "http://ns.adobe.com/SaveForWeb/1.0/">
	<!ENTITY ns_custom "http://ns.adobe.com/GenericCustomNamespace/1.0/">
	<!ENTITY ns_adobe_xpath "http://ns.adobe.com/XPath/1.0/">
]>
<svg version="1.1" id="Layer_1" xmlns:x="&ns_extend;" xmlns:i="&ns_ai;" xmlns:graph="&ns_graphs;"
	 xmlns="http://www.w3.org/2000/svg" xmlns:xlink="http://www.w3.org/1999/xlink" x="0px" y="0px" viewBox="0 0 920 186.5"
	 style="enable-background:new 0 0 920 186.5;" xml:space="preserve">
<style type="text/css">
	.st0{clip-path:url(#SVGID_2_);fill:#0A0035;}
	.st1{clip-path:url(#SVGID_2_);}
	.st2{clip-path:url(#SVGID_4_);fill:#FFFFFF;}
	.st3{clip-path:url(#SVGID_4_);fill:#FF3300;}
</style>
<metadata>
	<sfw  xmlns="&ns_sfw;">
		<slices></slices>
		<sliceSourceBounds  bottomLeftOrigin="true" height="186.5" width="920" x="0" y="0"></sliceSourceBounds>
	</sfw>
</metadata>
<g>
	<defs>
		<rect id="SVGID_1_" width="920" height="186.5"/>
	</defs>
	<clipPath id="SVGID_2_">
		<use xlink:href="#SVGID_1_"  style="overflow:visible;"/>
	</clipPath>
	<path class="st0" d="M283.2,156.7c-12.9,0-24.4-4.1-32.6-10.5c-2.9-2.3-4.1-5.3-4.1-8c0-4.1,3.3-6.8,7.4-6.8c3.3,0,5.3,1.2,7.6,2.9
		c5.5,4.1,13.3,8,23.2,8c11.1,0,17-4.1,17-10.5c0-7-5.7-9.6-20.1-13.5c-25.2-6.8-34.4-15.4-34.4-30.1c0-15.4,14.1-25.4,36.3-25.4
		c8.4,0,17.8,2,25.4,5.7c5.5,2.7,9.4,5.9,9.4,10c0,3.7-2.1,7.2-7.4,7.2c-2.7,0-5.3-1.2-8.4-2.9c-5.7-3.1-12.1-4.7-19.5-4.7
		c-10.3,0-17.2,2.7-17.2,9.8c0,7,6.1,9.2,20.9,13.5c22.1,6.4,33.6,12.3,33.6,28.9C320.3,145.6,307.6,156.7,283.2,156.7"/>
	<path class="st0" d="M326,73.3c0-5.3,4.3-9.6,9.6-9.6c5.3,0,9.6,4.3,9.6,9.6v42.8c0,12.9,10,23,23.6,23c13.5,0,23.8-10,23.8-23
		V73.3c0-5.3,4.3-9.6,9.6-9.6c5.3,0,9.6,4.3,9.6,9.6v40.6c0,24-18.2,42.8-43.1,42.8S326,137.9,326,113.9V73.3z"/>
	<path class="st0" d="M467.3,62.8c24.8,0,43.1,18.9,43.1,42.8v40.6c0,5.3-4.3,9.6-9.6,9.6c-5.3,0-9.6-4.3-9.6-9.6v-42.8
		c0-12.9-10.3-23-23.8-23s-23.6,10-23.6,23v42.8c0,5.3-4.3,9.6-9.6,9.6c-5.3,0-9.6-4.3-9.6-9.6v-40.6
		C424.4,81.7,442.5,62.8,467.3,62.8"/>
	<path class="st0" d="M543.3,155.9c-5.7,0-9.6-4.3-9.6-9.6v-65h-15.6c-4.5,0-8-3.5-8-8s3.5-8,8-8h15.6V38.4c0-5.3,3.9-9.6,9.6-9.6
		c5.7,0,9.6,4.3,9.6,9.6v26.9h17.6c4.5,0,8,3.5,8,8s-3.5,8-8,8H553v65C553,151.6,549.1,155.9,543.3,155.9"/>
	<path class="st0" d="M616.5,156.7c-28.5,0-46.9-21.1-46.9-46.9c0-25.8,18.5-46.9,46.9-46.9c28.5,0,46.9,21.1,46.9,46.9
		C663.5,135.6,645,156.7,616.5,156.7 M616.5,79.2c-18,0-27.7,13.9-27.7,30.5s9.6,30.5,27.7,30.5c18,0,27.7-13.9,27.7-30.5
		S634.5,79.2,616.5,79.2"/>
	<path class="st0" d="M671.2,73.3c0-5.3,4.3-9.6,9.6-9.6c5.3,0,9.6,4.3,9.6,9.6v42.8c0,12.9,10,23,23.6,23c13.6,0,23.8-10,23.8-23
		V73.3c0-5.3,4.3-9.6,9.6-9.6c5.3,0,9.6,4.3,9.6,9.6v40.6c0,24-18.2,42.8-43.1,42.8c-24.8,0-42.8-18.9-42.8-42.8V73.3H671.2z"/>
	<path class="st0" d="M816,81.3c-16.2,0-26,10.7-26,31.4v33.6c0,5.3-4.1,9.6-9.6,9.6c-6.1,0-9.6-4.3-9.6-9.6V73.5
		c0-5.7,4.1-9.8,9.8-9.8c5.5,0,9.4,3.9,9.4,9.8v8.8c3.5-11.7,13.1-19.1,26-19.1c5.5,0,9,3.9,9,9C825,77.4,821.1,81.3,816,81.3"/>
	<path class="st0" d="M859.6,156.7c-12.9,0-24.4-4.1-32.6-10.5c-2.9-2.3-4.1-5.3-4.1-8c0-4.1,3.3-6.8,7.4-6.8c3.3,0,5.3,1.2,7.6,2.9
		c5.5,4.1,13.3,8,23.2,8c11.1,0,17-4.1,17-10.5c0-7-5.7-9.6-20.1-13.5c-25.2-6.8-34.4-15.4-34.4-30.1c0-15.4,14.1-25.4,36.3-25.4
		c8.4,0,17.8,2,25.4,5.7c5.5,2.7,9.4,5.9,9.4,10c0,3.7-2,7.2-7.4,7.2c-2.7,0-5.3-1.2-8.4-2.9c-5.7-3.1-12.1-4.7-19.5-4.7
		c-10.3,0-17.2,2.7-17.2,9.8c0,7,6.2,9.2,20.9,13.5c22.1,6.4,33.6,12.3,33.6,28.9C896.7,145.6,884,156.7,859.6,156.7"/>
	<g class="st1">
		<defs>
			<rect id="SVGID_3_" x="2" y="29.6" width="213" height="138.1"/>
		</defs>
		<clipPath id="SVGID_4_">
			<use xlink:href="#SVGID_3_"  style="overflow:visible;"/>
		</clipPath>
		<path class="st2" d="M2,29.6h213v138.1H2V29.6z M110.2,155.1c2.3-0.2,6.8-0.3,11.3-1.1c28.3-4.4,50.2-19,66.1-42.7
			c10-15,14.3-32,15.4-49.8c0.5-8.4-6.8-16.5-15.3-16.6c-9.2-0.1-15.5,6.7-15.9,17.7c-0.7,18.1-7.6,33.2-21.1,45.2
			c-18.1,16-39,20.2-61.9,13.8c-26-7.2-44.3-30.8-45.3-56.9c-0.1-2.9-0.3-6-1.2-8.8c-2.3-7.3-10.1-12.2-17.1-11c-7.5,1.3-13,8-13,16
			c0.3,23.4,8.2,44,23.5,61.3C54.6,143.8,78.9,155.1,110.2,155.1 M97.6,60.5c0-8.1-7.5-15.6-15.5-15.5c-7.6,0.1-15.1,7.9-15.2,15.6
			c0,7.7,7.6,15,15.6,15C91.1,75.6,97.6,69.1,97.6,60.5 M132.1,75.6c8.5,0,14.9-6.6,15-15.2c0.1-8.2-7.2-15.1-15.2-15.3
			c-8.1-0.3-15.7,7.8-15.5,15.6C116.5,68.6,124,75.6,132.1,75.6"/>
		<path class="st3" d="M110.2,155.1c-31.3,0-55.6-11.3-74.6-32.8c-15.2-17.3-23.2-38-23.5-61.3c-0.1-8,5.5-14.8,13-16
			c7-1.2,14.8,3.7,17.1,11c0.9,2.8,1.1,5.8,1.2,8.8c1.1,26.1,19.4,49.6,45.5,56.9c22.9,6.4,43.8,2.2,61.8-13.8
			c13.5-11.9,20.4-27.1,21.1-45.2c0.4-11,6.7-17.8,15.9-17.7c8.4,0.1,15.9,8.2,15.3,16.6c-1.1,17.8-5.4,34.8-15.4,49.8
			c-15.8,23.8-37.7,38.4-66,42.8C117,154.7,112.5,154.9,110.2,155.1"/>
		<path class="st3" d="M97.6,60.5c0,8.7-6.5,15.1-15.1,15.1c-8,0-15.6-7.3-15.6-15C66.9,52.8,74.4,45,82,45
			C90.1,44.9,97.6,52.4,97.6,60.5"/>
		<path class="st3" d="M132.1,75.6c-8.1,0-15.5-7.1-15.7-14.8c-0.2-7.8,7.4-15.9,15.4-15.7c8,0.2,15.3,7.2,15.2,15.3
			C146.9,69,140.6,75.6,132.1,75.6"/>
	</g>
	<path class="st0" d="M888.5,36.9c5.2,0,9.1,4.1,9.1,9.1s-3.9,9.1-9.1,9.1c-5.2,0-9.1-4.1-9.1-9.1S883.3,36.9,888.5,36.9
		 M888.5,53.5c4.6,0,7.2-3.6,7.2-7.4s-2.6-7.4-7.2-7.4c-4.6,0-7.2,3.6-7.2,7.4S883.9,53.5,888.5,53.5 M890.3,46.5l1.7,3
		c0.1,0.1,0.1,0.2,0.1,0.4c0,0.4-0.3,0.6-0.7,0.6c-0.3,0-0.5-0.2-0.6-0.4l-1.9-3.4H887v3.1c0,0.4-0.3,0.7-0.7,0.7
		c-0.4,0-0.7-0.3-0.7-0.7V42c0-0.4,0.3-0.7,0.7-0.7h2.5c1.9,0,2.9,1.1,2.9,2.6C891.9,45.2,891.5,46,890.3,46.5 M887.1,42.7v2.9h1.9
		c1.2,0,1.5-0.7,1.5-1.4c0-0.8-0.5-1.4-1.5-1.4h-1.9V42.7z"/>
</g>
</svg>
